<?xml version="1.0" encoding="UTF-8" standalone="no"?>
<!-- Created with Inkscape (http://www.inkscape.org/) -->

<svg
   width="512"
   height="512"
   viewBox="0 0 135.46666 135.46667"
   version="1.1"
   id="svg1113"
   inkscape:version="1.1.2 (0a00cf5339, 2022-02-04)"
   sodipodi:docname="whale 512.svg"
   xmlns:inkscape="http://www.inkscape.org/namespaces/inkscape"
   xmlns:sodipodi="http://sodipodi.sourceforge.net/DTD/sodipodi-0.dtd"
   xmlns="http://www.w3.org/2000/svg"
   xmlns:svg="http://www.w3.org/2000/svg">
  <sodipodi:namedview
     id="namedview1115"
     pagecolor="#505050"
     bordercolor="#ffffff"
     borderopacity="1"
     inkscape:pageshadow="0"
     inkscape:pageopacity="0"
     inkscape:pagecheckerboard="1"
     inkscape:document-units="mm"
     showgrid="false"
     units="px"
     inkscape:zoom="0.37683081"
     inkscape:cx="257.40995"
     inkscape:cy="230.87284"
     inkscape:window-width="1553"
     inkscape:window-height="748"
     inkscape:window-x="0"
     inkscape:window-y="86"
     inkscape:window-maximized="0"
     inkscape:current-layer="layer1" />
  <defs
     id="defs1110">
    <inkscape:path-effect
       effect="bspline"
       id="path-effect7"
       is_visible="true"
       lpeversion="1.3"
       weight="33.333333"
       steps="2"
       helper_size="0"
       apply_no_weight="true"
       apply_with_weight="true"
       only_selected="false"
       uniform="false" />
  </defs>
  <g
     inkscape:label="Layer 1"
     inkscape:groupmode="layer"
     id="layer1">
    <g
       id="g1108"
       transform="matrix(1.0613367,0,0,1.0613367,-80.315653,-158.70428)">
      <path
         id="path2"
         style="display:inline;fill:#25aae1;fill-opacity:1;fill-rule:evenodd;stroke:none;stroke-width:48;stroke-linecap:round;stroke-miterlimit:50;paint-order:fill markers stroke"
         d="m 147.69229,151.67301 c -24.52328,0.0135 -46.1261,17.6898 -52.391132,38.73984 -1.19485,2.96358 -3.76524,11.47744 -4.0952,12.92719 -0.33267,1.46167 -1.51632,5.20083 -2.34285,6.24663 -0.82654,1.0458 -1.80385,1.85314 -2.8134,2.04728 -1.00955,0.19415 -1.23516,-0.10746 -2.3418,-0.4375 -1.10663,-0.33004 -1.82504,-1.18503 -2.61133,-2.39844 -0.78627,-1.21341 -1.64127,-2.78636 -2.39843,-3.96094 -0.75717,-1.17458 -1.41739,-1.95125 -1.97071,-2.29101 -0.13832,-0.0849 -0.27019,-0.14174 -0.39062,-0.13477 -0.36129,0.0209 -0.6218,0.62307 -0.6582,2.81445 -0.0485,2.92186 0.30183,8.6677 0.47656,11.54102 0.17473,2.87332 0.17412,2.87338 0.22265,3.90234 0.0485,1.02896 0.14684,3.08709 0.20508,4.90235 0.0582,1.81526 0.0774,3.3872 0.60157,3.79492 0.52416,0.40772 1.55349,-0.34895 2.33007,-1.21289 0.77659,-0.86395 1.30056,-1.83341 1.91211,-3.03711 0.61156,-1.2037 1.31061,-2.642 1.97071,-3.8457 0.66008,-1.2037 1.28036,-2.1729 2.10546,-2.66797 0.0835,-0.0501 0.16854,-0.0962 0.25586,-0.13672 0.77574,-0.36022 1.68947,-0.3496 2.49219,-0.0879 0.89307,0.29122 1.64909,0.89311 2.37695,1.63086 0.0246,0.0249 0.0497,0.0509 0.0742,0.0762 0.002,0.002 0.002,0.004 0.004,0.006 0.0776,0.0806 0.23302,0.2407 0.5,0.75195 0.26698,0.51126 1.5544,1.82609 2.24219,3.38281 0.6878,1.55673 2.01181,3.8898 3.65234,6.67579 1.64053,2.78598 3.793452,5.45558 6.138672,8.05078 2.20657,2.44176 4.17267,4.40217 6.60156,6.20117 0.28073,0.20792 0.51439,0.39536 0.77344,0.59375 1.55917,1.39037 3.19794,2.69134 4.90821,3.89648 0.0444,0.0335 0.0861,0.0682 0.13085,0.10157 0.0175,0.013 0.0352,0.0223 0.0527,0.0351 9.30907,6.64512 20.49588,10.24358 31.98633,10.28906 30.34186,-4e-5 54.93893,-24.26481 54.93945,-54.19726 5.7e-4,-29.93321 -24.59681,-54.19918 -54.93945,-54.19922 z"
         sodipodi:nodetypes="ccssssssssssssssssscssscsssssccsccsc" />
      <circle
         style="display:inline;fill:#ee3897;fill-opacity:1;fill-rule:evenodd;stroke:none;stroke-width:47.9999;stroke-linecap:round;stroke-miterlimit:50;paint-order:fill markers stroke"
         id="path4"
         cx="130.62828"
         cy="217.85878"
         r="6.509191" />
      <circle
         style="fill:#ee3897;fill-opacity:1;fill-rule:evenodd;stroke:none;stroke-width:47.9999;stroke-linecap:round;stroke-miterlimit:50;paint-order:fill markers stroke"
         id="path4-4"
         cx="190.82632"
         cy="217.85878"
         r="6.509191" />
      <circle
         style="fill:#000000;fill-opacity:1;fill-rule:evenodd;stroke:none;stroke-width:47.9998;stroke-linecap:round;stroke-miterlimit:50;paint-order:fill markers stroke"
         id="circle5"
         cx="195.07808"
         cy="205.32512"
         r="1.7623842" />
      <circle
         style="fill:#000000;fill-opacity:1;fill-rule:evenodd;stroke:none;stroke-width:47.9998;stroke-linecap:round;stroke-miterlimit:50;paint-order:fill markers stroke"
         id="circle6"
         cx="128.16508"
         cy="205.87212"
         r="1.7623842" />
      <path
         style="fill:none;fill-opacity:1;fill-rule:evenodd;stroke:#000000;stroke-width:1.36;stroke-linecap:round;stroke-miterlimit:50;stroke-dasharray:none;stroke-opacity:1;paint-order:fill markers stroke"
         d="m 158.1331,211.80264 c 0,0.39091 0,0.78183 0.0473,1.16352 0.0473,0.3817 0.14184,0.75415 0.26706,1.08986 0.12521,0.33571 0.28107,0.63465 0.47361,0.88725 0.19253,0.2526 0.42174,0.45885 0.69616,0.6275 0.27442,0.16866 0.59403,0.2997 0.9196,0.32154 0.32557,0.0218 0.65702,-0.0655 0.92071,-0.2066 0.26368,-0.14109 0.45954,-0.33588 0.66834,-0.61032 0.2088,-0.27445 0.43053,-0.62852 0.58525,-0.99179 0.15472,-0.36328 0.24243,-0.73574 0.30207,-1.11744 0.0596,-0.3817 0.0912,-0.77261 0.12277,-1.16352"
         id="path6"
         inkscape:path-effect="#path-effect7"
         inkscape:original-d="m 158.1331,211.80264 c 0,0.39091 0,0.78183 0,1.17275 0.0946,0.37246 0.18912,0.74492 0.28369,1.11739 0.15586,0.29895 0.31172,0.59789 0.46758,0.89684 0.22921,0.20626 0.45842,0.4125 0.68764,0.61876 0.31962,0.13105 0.63923,0.26209 0.95886,0.39314 0.3315,-0.0874 0.66296,-0.17473 0.99445,-0.26209 0.19588,-0.19481 0.39174,-0.3896 0.58761,-0.5844 0.22173,-0.35409 0.44346,-0.70816 0.66519,-1.06225 0.0877,-0.37246 0.17542,-0.74492 0.26313,-1.11739 0.0316,-0.39093 0.0631,-0.78184 0.0947,-1.17275"
         sodipodi:nodetypes="ccccccccccc" />
    </g>
  </g>
</svg>
